<svg xmlns="http://www.w3.org/2000/svg" fill="none" viewBox="0 0 48 48" class="design-iconfont">
  <path fill-rule="evenodd" clip-rule="evenodd" d="M12.7805 12.7949V31.1946H19.0511C19.8903 31.1946 20.6951 31.5279 21.2885 32.1214C21.8819 32.7148 22.2153 33.5196 22.2153 34.3588V35.1248H12.0146C11.1754 35.1248 10.3705 34.7914 9.77713 34.198C9.18372 33.6046 8.85034 32.7997 8.85034 31.9605V12.029C8.85034 11.1898 9.18372 10.385 9.77713 9.79154C10.3705 9.19812 11.1754 8.86475 12.0146 8.86475H34.7146V9.63067C34.7146 10.4699 34.3813 11.2747 33.7878 11.8681C33.1944 12.4616 32.3896 12.7949 31.5504 12.7949H12.7805ZM34.9121 25.4481L35.3356 25.6393V15.2336C35.3356 14.395 35.6685 13.5907 36.2611 12.9974C36.8537 12.4041 37.6575 12.0703 38.4961 12.0693H39.1286V32.025L39.1221 32.2169C39.0702 33.7517 38.5263 35.2292 37.5707 36.4313C36.615 37.6335 35.2983 38.4966 33.8147 38.8933C32.3312 39.29 30.7594 39.1993 29.3313 38.6346C27.9032 38.07 26.6945 37.0612 25.8834 35.7571C25.0724 34.4531 24.702 32.9229 24.8269 31.3923C24.9519 29.8617 25.5655 28.4118 26.5773 27.2566C27.589 26.1013 28.9454 25.3019 30.4461 24.9762C31.9469 24.6506 33.5126 24.816 34.9121 25.4481ZM30.1759 34.6633C30.7072 35.0184 31.332 35.2079 31.9711 35.2079C32.8281 35.2079 33.65 34.8675 34.2559 34.2615C34.8619 33.6555 35.2024 32.8336 35.2024 31.9766C35.2024 31.3375 35.0129 30.7128 34.6578 30.1814C34.3027 29.65 33.7981 29.2358 33.2076 28.9913C32.6172 28.7467 31.9675 28.6827 31.3407 28.8074C30.7139 28.9321 30.1381 29.2398 29.6862 29.6917C29.2343 30.1436 28.9265 30.7194 28.8019 31.3462C28.6772 31.973 28.7412 32.6227 28.9857 33.2132C29.2303 33.8036 29.6445 34.3083 30.1759 34.6633ZM16.6503 21.2476H21.8966C22.1952 21.2476 22.4909 21.1888 22.7667 21.0745C23.0426 20.9601 23.2933 20.7926 23.5044 20.5814C23.7155 20.3702 23.8829 20.1195 23.9971 19.8436C24.1113 19.5677 24.17 19.2721 24.1699 18.9736L24.1682 18.1499H16.6503V21.2476Z" fill="#BABABA"/>
</svg>
