<svg xmlns="http://www.w3.org/2000/svg" fill="none" viewBox="0 0 119 39" class="design-iconfont">
  <rect x="1" y="1" width="117" height="37.5" rx="6" stroke="#979797" stroke-width=".75"/>
  <path fill-rule="evenodd" clip-rule="evenodd" d="M22.3816 12.4375C23.1591 11.5 23.5478 10.375 23.4506 9.15625C22.2844 9.25 21.1181 9.81247 20.3407 10.75C19.5632 11.5937 19.1744 12.7188 19.2716 13.9375C20.535 13.9375 21.6041 13.375 22.3816 12.4375ZM25.1026 20.0309C25.1026 18.4371 25.9772 16.9371 27.435 16.0934C26.5603 14.8746 25.1026 14.1246 23.5476 14.0308C22.5398 13.9165 21.5682 14.2905 20.7651 14.5996C20.2515 14.7972 19.8069 14.9683 19.4657 14.9683C19.0765 14.9683 18.6103 14.7827 18.0928 14.5766C17.4474 14.3196 16.7222 14.0308 15.967 14.0308C14.1205 14.1246 12.4683 15.0621 11.5936 16.5621C9.74713 19.6559 11.1077 24.3434 12.9542 26.8746C13.8289 28.0934 14.898 29.4997 16.2586 29.4997C16.8743 29.4572 17.311 29.2804 17.7576 29.0995C18.2979 28.8807 18.8528 28.6559 19.7573 28.6559C20.6092 28.6559 21.1252 28.8803 21.6251 29.0976C22.0946 29.3017 22.5499 29.4997 23.256 29.4997C24.7138 29.4997 25.5885 28.2809 26.4632 26.9684C27.1435 26.1247 27.6294 25.0934 27.921 24.0621C26.1716 23.4996 25.1026 21.8121 25.1026 20.0309ZM37.5427 26.4063H42.1105L43.2767 29.5938H45.2205L40.8471 17.9688H38.9033L34.5299 29.5938H36.4737L37.5427 26.4063ZM38.0289 25H41.722L39.8755 19.8438H39.7783L38.0289 25ZM50.9546 29.6872C53.1899 29.6872 54.6477 27.9997 54.6477 25.3747C54.6477 22.7496 53.0927 20.9684 50.9546 21.0621C49.7883 21.0621 48.7192 21.6246 48.1362 22.5621V21.1559H46.3867V32.4059H48.2333V28.1871C48.7192 29.1246 49.7883 29.7809 50.9546 29.6872ZM52.7034 25.375C52.7034 23.6875 51.8287 22.5625 50.3709 22.5625C49.0102 22.5625 48.0385 23.6875 48.0385 25.375C48.0385 27.0625 49.0102 28.1875 50.3709 28.1875C51.8287 28.1875 52.7034 27.0625 52.7034 25.375ZM60.5757 29.6872C62.811 29.6872 64.2688 27.9997 64.2688 25.3747C64.2688 22.7496 62.811 20.9684 60.5757 21.0621C59.4094 21.0621 58.3404 21.6246 57.7573 22.5621V21.1559H56.0078V32.4059H57.8545V28.1871C58.3404 29.1246 59.4094 29.7809 60.5757 29.6872ZM62.4218 25.375C62.4218 23.6875 61.5472 22.5625 60.0894 22.5625C58.7288 22.5625 57.7569 23.6875 57.7569 25.375C57.7569 27.0625 58.7288 28.1875 60.0894 28.1875C61.5472 28.1875 62.4218 27.0625 62.4218 25.375ZM73.5986 28.1875C71.9465 28.1875 70.7802 27.4375 70.6831 26.3125H69.0309C69.1281 28.4688 70.8774 29.7813 73.5986 29.7813C76.5142 29.7813 78.2636 28.375 78.2636 26.2188C78.2636 24.5313 77.1945 23.5938 74.7649 23.0313L73.4043 22.75C71.8493 22.375 71.169 21.9063 71.169 21.0625C71.169 20.0312 72.1409 19.2812 73.5986 19.2812C75.0564 19.2812 76.0283 20.0312 76.1255 21.1563H77.972C77.8749 19.1875 76.1255 17.7812 73.5986 17.7812C71.0718 17.7812 69.2253 19.1875 69.2253 21.1563C69.2253 22.75 70.1971 23.7813 72.4324 24.25L73.9874 24.625C75.5424 25 76.2227 25.4688 76.2227 26.4063C76.2227 27.4375 75.1536 28.1875 73.5986 28.1875ZM81.9563 19.1875V21.0625H83.6085V22.4688H81.9563V27.1563C81.9563 27.9063 82.2479 28.1875 83.0254 28.1875H83.6085V29.5938C83.3169 29.6876 82.9282 29.6876 82.6366 29.6876C80.8873 29.6876 80.207 29.0313 80.207 27.4375V22.5625H78.9435V21.1563H80.207V19.1875H81.9563ZM88.8568 21.0625C86.3299 21.0625 84.6777 22.75 84.6777 25.375C84.6777 28 86.2327 29.6876 88.8568 29.6876C91.3836 29.6876 93.0358 28.0938 93.0358 25.375C93.0358 22.75 91.3836 21.0625 88.8568 21.0625ZM91.1895 25.375C91.1895 23.5 90.3148 22.4688 88.857 22.4688C87.3992 22.4688 86.5246 23.5 86.5246 25.375C86.5246 27.2501 87.3992 28.2813 88.857 28.2813C90.3148 28.2813 91.1895 27.1563 91.1895 25.375ZM96.2434 21.0626H94.494V29.6877H96.3406V24.3439C96.3406 23.4064 97.2153 22.6564 98.1871 22.6564C98.3816 22.6564 98.6732 22.6564 98.9647 22.7501V21.1564C98.7704 21.0626 98.576 21.0626 98.3816 21.0626C97.4096 20.9689 96.4378 21.6251 96.2434 22.5626V21.0626ZM107.323 27.0625C107.128 28.5625 105.573 29.6876 103.533 29.6876C101.006 29.6876 99.3535 28.0001 99.3535 25.375C99.3535 22.75 100.908 20.9688 103.435 20.9688C105.865 20.9688 107.42 22.5625 107.42 25.1875V25.75H101.2V25.8437C101.103 27.0625 101.978 28.0938 103.241 28.2812H103.533C104.407 28.375 105.282 27.9063 105.573 27.0625H107.323ZM105.573 24.5313H101.199C101.199 23.3125 102.171 22.375 103.337 22.375H103.532C104.698 22.4688 105.67 23.4063 105.573 24.5313Z" fill="#fff"/>
  <path fill-rule="evenodd" clip-rule="evenodd" d="M58.4371 8.875H59.3117V14.7813H58.4371V8.875ZM40.4575 11.4063C40.3603 10.0938 39.194 9.0625 37.7362 9.15625L35.5981 9.0625V14.6876H37.7362C39.4856 14.6876 40.4575 13.6563 40.4575 11.8751V11.4063ZM37.6394 14.0312H36.5703V10H38.0281C39 10.0938 39.6803 11.0313 39.5831 11.9688V12.3437C39.4859 13.375 38.6112 14.125 37.6394 14.0312ZM41.5264 12.6244C41.4292 11.4993 42.3039 10.5618 43.373 10.4681C44.5392 10.3743 45.5111 11.2181 45.6083 12.2493V12.6244C45.7055 13.7494 44.928 14.6869 43.7617 14.7807C42.5955 14.8744 41.6236 14.1244 41.5264 12.9994V12.6244ZM43.5676 11.2188C44.3451 11.2188 44.7338 11.6875 44.7338 12.625C44.7338 13.5625 44.3451 14.125 43.5676 14.125C42.7901 14.125 42.4013 13.5625 42.4013 12.625C42.4013 11.7812 42.7901 11.2188 43.5676 11.2188ZM51.1478 14.7814H50.2731L49.3984 11.6875H49.3013L48.4266 14.7814H47.5519L46.3857 10.5625H47.2603L48.0378 13.7501H48.135L49.0097 10.5625H49.8844L50.7591 13.7501H50.8562L51.6337 10.5625H52.5084L51.1478 14.7814ZM54.258 10.5629H53.3833V14.7818H54.258V12.1568C54.258 11.5942 54.7439 11.2193 55.327 11.2193C56.0073 11.2193 56.2989 11.5942 56.2989 12.2504V14.7818H57.1736V11.7817C57.0764 10.938 56.3961 10.3754 55.6186 10.4692C55.1327 10.4692 54.5495 10.7505 54.3552 11.2193H54.258V10.5629ZM62.3245 10.4688C61.1582 10.5626 60.3807 11.5001 60.4779 12.6251V13.0002C60.5751 14.1251 61.547 14.8752 62.7132 14.7814C63.8794 14.6877 64.6569 13.7502 64.5597 12.6251V12.2501C64.4626 11.1252 63.4907 10.3751 62.3245 10.4688ZM63.7822 12.625C63.7822 11.6875 63.3934 11.2188 62.6159 11.2188C61.8385 11.2188 61.4497 11.7812 61.4497 12.625C61.4497 13.5625 61.8385 14.125 62.6159 14.125C63.2962 14.125 63.7822 13.5625 63.7822 12.625ZM67.1834 12.3438C66.1144 12.3438 65.5313 12.8126 65.5313 13.5626C65.5313 13.6021 65.5313 13.6249 65.524 13.6452C65.514 13.673 65.4903 13.6958 65.4341 13.7501C65.5313 14.4063 66.2116 14.9688 66.8919 14.8751C67.475 14.8751 67.9609 14.6876 68.2525 14.2188H68.3497V14.7814H69.2244V11.8751C69.2244 11.0313 68.544 10.4688 67.475 10.4688C66.5031 10.4688 65.8228 10.9376 65.7256 11.6875H66.6003C66.6975 11.4063 66.9891 11.2188 67.475 11.2188C68.0581 11.2188 68.3497 11.4063 68.3497 11.8751V12.25L67.1834 12.3438ZM68.3498 13.1875V12.8125L67.2807 12.9063C66.6976 12.9063 66.4061 13.1875 66.4061 13.4687C66.4061 13.8438 66.7948 14.0312 67.1835 14.0312C67.7667 14.2187 68.2526 13.8438 68.3498 13.1875ZM72.1398 10.4687C70.9736 10.4687 70.2933 11.3125 70.2933 12.625C70.2933 14.0313 71.0708 14.8751 72.1398 14.8751C72.7229 14.8751 73.2089 14.5938 73.5004 14.125H73.5976V14.7813H74.4723V8.875H73.5976V11.2188H73.5004C73.2089 10.75 72.7229 10.4687 72.1398 10.4687ZM71.2653 12.625C71.2653 13.5625 71.654 14.0312 72.4315 14.0312C73.209 14.0312 73.5978 13.4687 73.5978 12.625C73.5978 11.7812 73.1118 11.2188 72.4315 11.2188C71.654 11.2188 71.2653 11.7812 71.2653 12.625ZM79.8181 10.4688C78.6519 10.5626 77.8744 11.5001 77.9716 12.6251V13.0002C78.0687 14.1251 79.0406 14.8752 80.2069 14.7814C81.3731 14.6877 82.1506 13.7502 82.0534 12.6251V12.2501C81.9562 11.1252 80.9843 10.3751 79.8181 10.4688ZM81.2759 12.625C81.2759 11.6875 80.8871 11.2188 80.1097 11.2188C79.3322 11.2188 78.9434 11.7812 78.9434 12.625C78.9434 13.5625 79.3322 14.125 80.1097 14.125C80.79 14.125 81.2759 13.5625 81.2759 12.625ZM84.1916 10.5629H83.3169V14.7818H84.1916V12.1568C84.1916 11.5942 84.6775 11.2193 85.2606 11.2193C85.9409 11.2193 86.2325 11.5942 86.2325 12.2504V14.7818H87.1072V11.7817C87.01 10.938 86.3297 10.3754 85.5522 10.4692C85.0662 10.4692 84.4831 10.7505 84.2888 11.2193H84.1916V10.5629ZM91.8688 9.53125V10.5625H92.8406V11.3125H91.8688V13.4688C91.8688 13.9376 92.0631 14.125 92.4519 14.125H92.7434V14.7813H92.2575C91.2856 14.7813 90.8969 14.5001 90.8969 13.6563V11.3125H90.2166V10.6562H90.8969V9.53125H91.8688ZM94.8822 8.875H94.1047V14.7813H94.9794V12.1563C94.9794 11.5938 95.4653 11.2188 96.0484 11.2188C96.7287 11.2188 97.0203 11.5938 97.0203 12.25V14.7813H97.895V11.7813C97.7978 11.0313 97.1175 10.4687 96.34 10.4687C95.7569 10.375 95.1737 10.75 94.9794 11.2188H94.8822V8.875ZM102.851 13.6563C102.834 13.7203 102.813 13.7829 102.787 13.8438H102.073C101.879 14.125 101.393 14.4063 101.004 14.3126H100.907C100.227 14.2188 99.7409 13.7501 99.8381 13.0938V13.0001H102.948V12.7188C102.948 11.4063 102.268 10.5625 101.004 10.5625H100.713C99.5465 10.6563 98.769 11.6875 98.9634 12.7188V13.0001C98.9634 14.0314 99.9353 14.8751 101.004 14.8751C101.715 14.9608 102.508 14.4975 102.787 13.8438H102.851V13.6563ZM101.976 12.2499H99.7408C99.7408 11.6875 100.324 11.2188 100.907 11.125H101.004C101.587 11.2188 101.976 11.6875 101.976 12.2499Z" fill="#fff"/>
</svg>
