<svg xmlns="http://www.w3.org/2000/svg" fill="none" viewBox="0 0 119 39" class="design-iconfont">
  <rect x="1" y="1" width="117" height="37.5" rx="6" stroke="#979797" stroke-width=".75"/>
  <path fill-rule="evenodd" clip-rule="evenodd" d="M62.5265 13.2813C63.3115 13.2813 63.9221 13 64.4454 12.4375C64.9687 11.8751 65.2304 11.2188 65.2304 10.3751C65.2304 9.53127 64.9687 8.87501 64.4454 8.31251C63.9221 7.75001 63.3115 7.46875 62.5265 7.46875C61.7415 7.46875 61.1309 7.75001 60.6076 8.31251C60.0843 8.87501 59.8226 9.53127 59.8226 10.3751C59.8226 11.2188 60.0843 11.8751 60.6076 12.4375C61.1309 13 61.7415 13.2813 62.5265 13.2813ZM40.9826 12.4375C41.4188 11.9688 41.5932 11.3125 41.5932 10.5625V10.1875H39.0638V10.9375H40.9826C40.9826 11.4063 40.8082 11.7813 40.5465 12.0626C40.1104 12.5313 39.6743 12.7188 39.0638 12.7188C38.5404 12.7188 38.1043 12.4375 37.6682 12.0626C37.2321 11.6875 37.0576 11.1251 37.0576 10.4687C37.0576 9.81251 37.2321 9.25002 37.6682 8.87501C38.0171 8.40626 38.5404 8.21876 39.0638 8.21876C39.6743 8.21876 40.1104 8.40626 40.4593 8.87501L40.8954 8.40626C40.721 8.12501 40.4593 7.9375 40.1104 7.75001C39.7615 7.5625 39.4126 7.46875 39.0638 7.46875C38.2788 7.46875 37.6682 7.75001 37.1449 8.31251C36.6215 8.87501 36.3599 9.53127 36.3599 10.3751C36.3599 11.2188 36.6215 11.8751 37.1449 12.4375C37.6682 13 38.2788 13.2813 39.0638 13.2813C39.8488 13.2813 40.4593 13 40.9826 12.4375ZM43.2502 8.21889H45.6052V7.56263H42.5524V13.1877H45.6052V12.4377H43.2502V10.6564H45.4308V10.0002H43.2502V8.21889ZM48.4837 13.1875H47.7859V8.21875H46.3032V7.5625H49.9665V8.21875H48.4837V13.1875ZM52.4959 7.5625V13.1875H53.1937V7.5625H52.4959ZM56.1591 13.1875H55.4613V8.21876H53.9785V7.5625H57.5546V8.21876H56.0718L56.1591 13.1875ZM61.1308 11.969C61.4796 12.3439 62.003 12.6252 62.5263 12.6252C63.0496 12.6252 63.573 12.4377 63.9219 11.969C64.2708 11.5939 64.5324 11.0314 64.5324 10.3752C64.5324 9.71887 64.358 9.15639 63.9219 8.78139C63.573 8.40639 63.0496 8.12513 62.5263 8.12513C62.003 8.12513 61.4796 8.31264 61.1308 8.78139C60.7819 9.15639 60.5202 9.71887 60.5202 10.3752C60.5202 11.0314 60.6946 11.5939 61.1308 11.969ZM66.1898 7.5625V13.1875H66.8004V8.59376L69.5043 13.1875H70.2021V7.5625H69.5043V11.9688L66.9748 7.5625H66.1898Z" fill="#fff"/>
  <path d="M64.4454 12.4375L64.3905 12.3865L64.3905 12.3865L64.4454 12.4375ZM60.6076 12.4375L60.6625 12.3865L60.6625 12.3865L60.6076 12.4375ZM40.9826 12.4375L40.9277 12.3865L40.9277 12.3865L40.9826 12.4375ZM41.5932 10.1876H41.6682V10.1126H41.5932V10.1876ZM39.0638 10.1876V10.1126H38.9888V10.1876H39.0638ZM39.0638 10.9376H38.9888V11.0126H39.0638V10.9376ZM40.9826 10.9376H41.0576V10.8626H40.9826V10.9376ZM40.5465 12.0626L40.6014 12.1137L40.6014 12.1137L40.5465 12.0626ZM37.6682 12.0626L37.6193 12.1195L37.6193 12.1195L37.6682 12.0626ZM37.6682 8.87502L37.7171 8.93188L37.7234 8.92647L37.7284 8.9198L37.6682 8.87502ZM40.4593 8.87502L40.3991 8.9198L40.4529 8.99202L40.5142 8.9261L40.4593 8.87502ZM40.8954 8.40627L40.9503 8.45735L40.9893 8.41541L40.9592 8.36674L40.8954 8.40627ZM40.1104 7.75001L40.0749 7.81608L40.0749 7.81608L40.1104 7.75001ZM37.1449 12.4375L37.1998 12.3865L37.1998 12.3865L37.1449 12.4375ZM45.6052 8.21889V8.29389H45.6802V8.21889H45.6052ZM43.2502 8.21889V8.14389H43.1752V8.21889H43.2502ZM45.6052 7.56264H45.6802V7.48764H45.6052V7.56264ZM42.5524 7.56264V7.48764H42.4774V7.56264H42.5524ZM42.5524 13.1877H42.4774V13.2627H42.5524V13.1877ZM45.6052 13.1877V13.2627H45.6802V13.1877H45.6052ZM45.6052 12.4377H45.6802V12.3627H45.6052V12.4377ZM43.2502 12.4377H43.1752V12.5127H43.2502V12.4377ZM43.2502 10.6564V10.5814H43.1752V10.6564H43.2502ZM45.4308 10.6564V10.7314H45.5058V10.6564H45.4308ZM45.4308 10.0002H45.5058V9.92516H45.4308V10.0002ZM43.2502 10.0002H43.1752V10.0752H43.2502V10.0002ZM47.7859 13.1875H47.7109V13.2625H47.7859V13.1875ZM48.4837 13.1875V13.2625H48.5587V13.1875H48.4837ZM47.7859 8.21876H47.8609V8.14376H47.7859V8.21876ZM46.3032 8.21876H46.2282V8.29376H46.3032V8.21876ZM46.3032 7.5625V7.4875H46.2282V7.5625H46.3032ZM49.9665 7.5625H50.0415V7.4875H49.9665V7.5625ZM49.9665 8.21876V8.29376H50.0415V8.21876H49.9665ZM48.4837 8.21876V8.14376H48.4087V8.21876H48.4837ZM52.4959 13.1875H52.4209V13.2625H52.4959V13.1875ZM52.4959 7.5625V7.4875H52.4209V7.5625H52.4959ZM53.1937 13.1875V13.2625H53.2687V13.1875H53.1937ZM53.1937 7.5625H53.2687V7.4875H53.1937V7.5625ZM55.4613 13.1875H55.3863V13.2625H55.4613V13.1875ZM56.1591 13.1875V13.2625H56.2354L56.2341 13.1862L56.1591 13.1875ZM55.4613 8.21876H55.5363V8.14376H55.4613V8.21876ZM53.9785 8.21876H53.9035V8.29376H53.9785V8.21876ZM53.9785 7.56251V7.48751H53.9035V7.56251H53.9785ZM57.5546 7.56251H57.6296V7.48751H57.5546V7.56251ZM57.5546 8.21876V8.29376H57.6296V8.21876H57.5546ZM56.0718 8.21876V8.14376H55.9955L55.9969 8.22008L56.0718 8.21876ZM61.1308 11.969L61.186 11.9175L61.1797 11.9121L61.1308 11.969ZM63.9219 11.969L63.8666 11.9176L63.8617 11.9242L63.9219 11.969ZM63.9219 8.78139L63.8666 8.8328L63.873 8.83826L63.9219 8.78139ZM61.1308 8.78139L61.186 8.83278L61.1909 8.82617L61.1308 8.78139ZM66.1898 13.1875H66.1148V13.2625H66.1898V13.1875ZM66.1898 7.5625V7.4875H66.1148V7.5625H66.1898ZM66.8004 13.1875V13.2625H66.8754V13.1875H66.8004ZM66.8004 8.59377L66.865 8.55572L66.7254 8.31849V8.59377H66.8004ZM69.5043 13.1875L69.4396 13.2256L69.4614 13.2625H69.5043V13.1875ZM70.2021 13.1875V13.2625H70.2771V13.1875H70.2021ZM70.2021 7.5625H70.2771V7.4875H70.2021V7.5625ZM69.5043 7.5625V7.4875H69.4293V7.5625H69.5043ZM69.5043 11.9688L69.4392 12.0062L69.5793 12.2501V11.9688H69.5043ZM66.9748 7.5625L67.0399 7.52516L67.0183 7.4875H66.9748V7.5625ZM64.3905 12.3865C63.8808 12.9343 63.2898 13.2063 62.5265 13.2063V13.3563C63.3332 13.3563 63.9634 13.0657 64.5003 12.4886L64.3905 12.3865ZM65.1554 10.3751C65.1554 11.2007 64.9004 11.8384 64.3905 12.3865L64.5003 12.4886C65.0371 11.9117 65.3054 11.237 65.3054 10.3751H65.1554ZM64.3905 8.3636C64.9004 8.91166 65.1554 9.54945 65.1554 10.3751H65.3054C65.3054 9.51309 65.0371 8.83837 64.5003 8.26143L64.3905 8.3636ZM62.5265 7.54375C63.2898 7.54375 63.8808 7.81572 64.3905 8.3636L64.5003 8.26143C63.9634 7.6843 63.3332 7.39375 62.5265 7.39375V7.54375ZM60.6625 8.3636C61.1723 7.81572 61.7632 7.54375 62.5265 7.54375V7.39375C61.7198 7.39375 61.0896 7.6843 60.5527 8.26143L60.6625 8.3636ZM59.8976 10.3751C59.8976 9.54945 60.1526 8.91166 60.6625 8.3636L60.5527 8.26143C60.0159 8.83837 59.7476 9.51309 59.7476 10.3751H59.8976ZM60.6625 12.3865C60.1526 11.8384 59.8976 11.2007 59.8976 10.3751H59.7476C59.7476 11.237 60.0159 11.9117 60.5527 12.4886L60.6625 12.3865ZM62.5265 13.2063C61.7632 13.2063 61.1723 12.9343 60.6625 12.3865L60.5527 12.4886C61.0896 13.0657 61.7198 13.3563 62.5265 13.3563V13.2063ZM41.5182 10.5625C41.5182 11.3022 41.346 11.9369 40.9277 12.3865L41.0375 12.4886C41.4915 12.0008 41.6682 11.3228 41.6682 10.5625H41.5182ZM41.5182 10.1876V10.5625H41.6682V10.1876H41.5182ZM39.0638 10.2626H41.5932V10.1126H39.0638V10.2626ZM39.1388 10.9376V10.1876H38.9888V10.9376H39.1388ZM40.9826 10.8626H39.0638V11.0126H40.9826V10.8626ZM40.6014 12.1137C40.8751 11.8195 41.0576 11.4265 41.0576 10.9376H40.9076C40.9076 11.3861 40.7413 11.7432 40.4916 12.0115L40.6014 12.1137ZM39.0638 12.7938C39.377 12.7938 39.6494 12.7457 39.9007 12.6351C40.1521 12.5246 40.3782 12.3536 40.6014 12.1137L40.4916 12.0115C40.2788 12.2403 40.0688 12.3974 39.8404 12.4978C39.612 12.5982 39.3611 12.6438 39.0638 12.6438V12.7938ZM37.6193 12.1195C38.058 12.4966 38.5119 12.7938 39.0638 12.7938V12.6438C38.5689 12.6438 38.1506 12.3785 37.7171 12.0057L37.6193 12.1195ZM36.9826 10.4687C36.9826 11.1372 37.1605 11.7249 37.6193 12.1195L37.7171 12.0057C37.3037 11.6502 37.1326 11.1129 37.1326 10.4687H36.9826ZM37.6193 8.81815C37.1605 9.21271 36.9826 9.80037 36.9826 10.4687H37.1326C37.1326 9.82466 37.3037 9.28734 37.7171 8.93188L37.6193 8.81815ZM39.0638 8.14376C38.5227 8.14376 37.9743 8.33811 37.608 8.83024L37.7284 8.9198C38.0599 8.47442 38.5581 8.29376 39.0638 8.29376V8.14376ZM40.5195 8.83024C40.3386 8.58724 40.1329 8.41441 39.891 8.30299C39.6497 8.1918 39.3766 8.14376 39.0638 8.14376V8.29376C39.3614 8.29376 39.6117 8.33948 39.8283 8.43923C40.0443 8.53874 40.2311 8.69404 40.3991 8.9198L40.5195 8.83024ZM40.8405 8.35518L40.4044 8.82393L40.5142 8.9261L40.9503 8.45735L40.8405 8.35518ZM40.0749 7.81608C40.4201 8.0016 40.6677 8.18143 40.8317 8.4458L40.9592 8.36674C40.7742 8.06859 40.4985 7.87342 40.1459 7.68395L40.0749 7.81608ZM39.0638 7.54376C39.3987 7.54376 39.7354 7.63363 40.0749 7.81608L40.1459 7.68395C39.7876 7.49138 39.4266 7.39376 39.0638 7.39376V7.54376ZM37.1998 8.3636C37.7095 7.81572 38.3004 7.54376 39.0638 7.54376V7.39376C38.2571 7.39376 37.6269 7.6843 37.09 8.26143L37.1998 8.3636ZM36.4349 10.3751C36.4349 9.54945 36.6899 8.91167 37.1998 8.3636L37.09 8.26143C36.5532 8.83837 36.2849 9.5131 36.2849 10.3751H36.4349ZM37.1998 12.3865C36.6899 11.8384 36.4349 11.2007 36.4349 10.3751H36.2849C36.2849 11.237 36.5532 11.9117 37.09 12.4886L37.1998 12.3865ZM39.0638 13.2063C38.3004 13.2063 37.7095 12.9343 37.1998 12.3865L37.09 12.4886C37.6269 13.0657 38.2571 13.3563 39.0638 13.3563V13.2063ZM40.9277 12.3865C40.418 12.9343 39.8271 13.2063 39.0638 13.2063V13.3563C39.8704 13.3563 40.5006 13.0657 41.0376 12.4886L40.9277 12.3865ZM45.6052 8.14389H43.2502V8.29389H45.6052V8.14389ZM45.5302 7.56264V8.21889H45.6802V7.56264H45.5302ZM42.5524 7.63764H45.6052V7.48764H42.5524V7.63764ZM42.6274 13.1877V7.56264H42.4774V13.1877H42.6274ZM45.6052 13.1127H42.5524V13.2627H45.6052V13.1127ZM45.5302 12.4377V13.1877H45.6802V12.4377H45.5302ZM43.2502 12.5127H45.6052V12.3627H43.2502V12.5127ZM43.1752 10.6564V12.4377H43.3252V10.6564H43.1752ZM45.4308 10.5814H43.2502V10.7314H45.4308V10.5814ZM45.3558 10.0002V10.6564H45.5058V10.0002H45.3558ZM43.2502 10.0752H45.4308V9.92516H43.2502V10.0752ZM43.1752 8.21889V10.0002H43.3252V8.21889H43.1752ZM47.7859 13.2625H48.4837V13.1125H47.7859V13.2625ZM47.7109 8.21876V13.1875H47.8609V8.21876H47.7109ZM46.3032 8.29376H47.7859V8.14376H46.3032V8.29376ZM46.2282 7.5625V8.21876H46.3782V7.5625H46.2282ZM49.9665 7.4875H46.3032V7.6375H49.9665V7.4875ZM50.0415 8.21876V7.5625H49.8915V8.21876H50.0415ZM48.4837 8.29376H49.9665V8.14376H48.4837V8.29376ZM48.5587 13.1875V8.21876H48.4087V13.1875H48.5587ZM52.5709 13.1875V7.5625H52.4209V13.1875H52.5709ZM53.1937 13.1125H52.4959V13.2625H53.1937V13.1125ZM53.1187 7.5625V13.1875H53.2687V7.5625H53.1187ZM52.4959 7.6375H53.1937V7.4875H52.4959V7.6375ZM55.4613 13.2625H56.1591V13.1125H55.4613V13.2625ZM55.3863 8.21876V13.1875H55.5363V8.21876H55.3863ZM53.9785 8.29376H55.4613V8.14376H53.9785V8.29376ZM53.9035 7.56251V8.21876H54.0535V7.56251H53.9035ZM57.5546 7.48751H53.9785V7.63751H57.5546V7.48751ZM57.6296 8.21876V7.56251H57.4796V8.21876H57.6296ZM56.0718 8.29376H57.5546V8.14376H56.0718V8.29376ZM56.2341 13.1862L56.1468 8.21744L55.9969 8.22008L56.0841 13.1889L56.2341 13.1862ZM62.5263 12.5502C62.0283 12.5502 61.5238 12.2812 61.1857 11.9179L61.0759 12.02C61.4355 12.4066 61.9776 12.7002 62.5263 12.7002V12.5502ZM63.8617 11.9242C63.5302 12.3695 63.032 12.5502 62.5263 12.5502V12.7002C63.0673 12.7002 63.6157 12.5058 63.982 12.0137L63.8617 11.9242ZM64.4574 10.3752C64.4574 11.0114 64.2037 11.5559 63.867 11.9179L63.9768 12.02C64.3379 11.6319 64.6074 11.0514 64.6074 10.3752H64.4574ZM63.873 8.83826C64.2863 9.19372 64.4574 9.73102 64.4574 10.3752H64.6074C64.6074 9.70673 64.4296 9.11908 63.9708 8.72452L63.873 8.83826ZM62.5263 8.20014C63.0243 8.20014 63.5288 8.46906 63.867 8.83248L63.9768 8.7303C63.6171 8.34372 63.075 8.05014 62.5263 8.05014V8.20014ZM61.1909 8.82617C61.5224 8.3808 62.0207 8.20014 62.5263 8.20014V8.05014C61.9853 8.05014 61.4369 8.24448 61.0706 8.73661L61.1909 8.82617ZM60.5952 10.3752C60.5952 9.73886 60.849 9.19438 61.1857 8.83248L61.0758 8.7303C60.7148 9.11842 60.4452 9.69889 60.4452 10.3752H60.5952ZM61.1797 11.9121C60.7663 11.5566 60.5952 11.0193 60.5952 10.3752H60.4452C60.4452 11.0436 60.623 11.6312 61.0819 12.0258L61.1797 11.9121ZM66.2648 13.1875V7.5625H66.1148V13.1875H66.2648ZM66.8004 13.1125H66.1898V13.2625H66.8004V13.1125ZM66.7254 8.59377V13.1875H66.8754V8.59377H66.7254ZM69.5689 13.1495L66.865 8.55572L66.7358 8.63181L69.4396 13.2256L69.5689 13.1495ZM70.2021 13.1125H69.5043V13.2625H70.2021V13.1125ZM70.1271 7.5625V13.1875H70.2771V7.5625H70.1271ZM69.5043 7.6375H70.2021V7.4875H69.5043V7.6375ZM69.5793 11.9688V7.5625H69.4293V11.9688H69.5793ZM66.9098 7.59984L69.4392 12.0062L69.5693 11.9315L67.0399 7.52516L66.9098 7.59984ZM66.1898 7.6375H66.9748V7.4875H66.1898V7.6375Z" fill="#fff"/>
  <path fill-rule="evenodd" clip-rule="evenodd" d="M41.8551 22.6562V24.3437H45.6056C45.5184 25.2812 45.1695 26.0312 44.7334 26.4999C44.2101 27.0624 43.3378 27.7187 41.8551 27.7187C39.5001 27.7187 37.7556 25.7499 37.7556 23.2187C37.7556 20.6875 39.5873 18.7188 41.8551 18.7188C43.0762 18.7188 44.0356 19.2812 44.7334 19.9375L45.8673 18.7188C44.9078 17.7812 43.6867 17.0312 41.9423 17.0312C38.8023 17.0312 36.0984 19.8437 36.0984 23.2187C36.0984 26.5937 38.8023 29.4062 41.9423 29.4062C43.6867 29.4062 44.9078 28.8437 45.9545 27.6249C47.0012 26.4999 47.3501 24.9062 47.3501 23.6875V23.6875C47.3501 23.3124 47.3501 22.9375 47.2628 22.6562H41.8551ZM51.5365 21.4373C49.4432 21.4373 47.7859 23.1248 47.7859 25.4685C47.7859 27.7185 49.4432 29.4998 51.5365 29.4998C53.6298 29.4998 55.2871 27.8123 55.2871 25.4685C55.2871 23.0311 53.6298 21.4373 51.5365 21.4373ZM55.8978 25.4687C55.8978 23.125 57.555 21.4375 59.6484 21.4375C61.7417 21.4375 63.3989 23.0312 63.3989 25.4687C63.3989 27.8124 61.7417 29.4999 59.6484 29.4999C57.555 29.4999 55.8978 27.7187 55.8978 25.4687ZM57.555 25.3749C57.555 26.7811 58.5145 27.8124 59.6484 27.8124C60.7823 27.8124 61.7417 26.7811 61.7417 25.3749C61.7417 23.875 60.7823 22.9375 59.6484 22.9375C58.5145 22.9375 57.555 23.9687 57.555 25.3749ZM49.4434 25.3749C49.4434 26.7811 50.4028 27.8124 51.5367 27.8124C52.6706 27.8124 53.63 26.7811 53.63 25.3749C53.63 23.875 52.6706 22.9375 51.5367 22.9375C50.4028 22.9375 49.4434 23.9687 49.4434 25.3749ZM78.3139 21.4375C80.2328 21.4375 81.105 23.0312 81.4539 23.9687L81.6284 24.4375L76.6567 26.6875C77.0928 27.5311 77.6162 27.9062 78.4884 27.9062C79.3606 27.9062 79.8839 27.4375 80.32 26.7811L81.5412 27.7187C81.1923 28.3749 80.1456 29.4999 78.4884 29.4999C76.395 29.4999 74.825 27.7187 74.825 25.4687C74.825 23.0312 76.395 21.4375 78.3139 21.4375ZM76.395 25.2812C76.395 23.7812 77.5289 22.9375 78.3139 22.9375C78.9245 22.9375 79.535 23.3124 79.7095 23.7812L76.395 25.2812ZM73.9529 29.1247H72.2957V17.4061H73.9529V29.1247ZM69.6789 22.2812C69.2428 21.8124 68.545 21.3437 67.6728 21.3437C65.8412 21.3437 64.0967 23.125 64.0967 25.3749C64.0967 27.6249 65.7539 29.3124 67.6728 29.3124C68.545 29.3124 69.2428 28.8437 69.5917 28.3749H69.6789V28.9374C69.6789 30.4374 68.8939 31.2811 67.6728 31.2811C66.7134 31.2811 66.0156 30.5311 65.8412 29.8749L64.4456 30.5311C64.8817 31.5624 65.9284 32.8749 67.76 32.8749C69.6789 32.8749 71.2489 31.6562 71.2489 28.7499V21.625H69.6789V22.2812ZM65.6667 25.3749C65.6667 26.7811 66.6261 27.8124 67.76 27.8124C68.8939 27.8124 69.7661 26.7811 69.7661 25.3749C69.7661 23.9687 68.8939 22.9375 67.76 22.9375C66.6261 22.9375 65.6667 23.9687 65.6667 25.3749ZM89.042 17.4061H85.1171V29.1247H86.7743V24.7185H89.042C90.8737 24.7185 92.6181 23.3122 92.6181 21.0622C92.6181 18.8123 90.8737 17.4061 89.042 17.4061ZM86.7745 23.0312H89.1294C90.2633 23.0312 90.9611 22 91.0483 20.9688C91.0483 20.125 90.3505 19 89.1294 19H86.7745V23.0312ZM99.16 21.3437C97.9389 21.3437 96.7177 21.9062 96.2816 23.125L97.7644 23.7812C98.1133 23.125 98.6366 22.9375 99.2472 22.9375C100.119 22.9375 100.904 23.4999 100.992 24.4375V24.5312C100.73 24.3437 100.032 24.0624 99.3344 24.0624C97.7644 24.0624 96.1944 24.9999 96.1944 26.6875C96.1944 28.2811 97.5027 29.3124 98.8983 29.3124C100.032 29.3124 100.556 28.7499 100.992 28.1874H101.079V29.1249H102.649V24.6249C102.474 22.5624 100.992 21.3437 99.16 21.3437ZM97.6772 26.7811C97.6772 27.5311 98.4622 27.8124 98.9855 27.8124C99.8577 27.8124 100.73 27.0624 100.904 25.9375C100.86 25.9185 100.817 25.8996 100.774 25.8808C100.394 25.714 100.049 25.5624 99.4216 25.5624C98.6366 25.5624 97.6772 25.8437 97.6772 26.7811ZM108.144 21.625L106.312 26.6875H106.225L104.306 21.625H102.562L105.44 28.7499L103.783 32.6874H105.44L109.888 21.625H108.144ZM95.1478 29.1247H93.4905V17.4061H95.1478V29.1247Z" fill="#fff"/>
  <path d="M9.32106 8.03125C9.05939 8.3125 8.97217 8.78125 8.97217 9.34375V30.0626C8.97217 30.6251 9.14661 31.0938 9.40828 31.3751L9.4955 31.4689L20.3111 19.8438V19.6563L9.32106 8.03125Z" fill="url(#3zkbtppiv__paint0_linear_847_34540)"/>
  <path d="M23.8 23.7813L20.2239 19.9375V19.6563L23.8 15.8125L23.8872 15.9063L28.1611 18.5313C29.3822 19.2813 29.3822 20.5 28.1611 21.2501L23.8 23.7813Z" fill="url(#3zkbtppiv__paint1_linear_847_34540)"/>
  <path d="M23.8872 23.6874L20.2238 19.75L9.32104 31.4686C9.75716 31.9374 10.3677 31.9374 11.1527 31.5624L23.8872 23.6874Z" fill="url(#3zkbtppiv__paint2_linear_847_34540)"/>
  <path d="M23.8869 15.8121L11.1525 8.03084C10.3675 7.56209 9.75691 7.65584 9.3208 8.12458L20.2236 19.7496L23.8869 15.8121Z" fill="url(#3zkbtppiv__paint3_linear_847_34540)"/>
  <path opacity=".2" d="M23.7999 23.5938L11.1527 31.2812C10.4549 31.75 9.84438 31.6562 9.40827 31.2812L9.32104 31.3749L9.40827 31.4687C9.84438 31.8437 10.4549 31.9375 11.1527 31.4687L23.7999 23.5938Z" fill="#fff"/>
  <path opacity=".12" fill-rule="evenodd" clip-rule="evenodd" d="M23.8 23.5938L28.1611 20.9687C28.6844 20.5938 29.0333 20.2187 29.0333 19.75C29.0333 20.2187 28.7716 20.6874 28.1611 21.0625L23.8872 23.6875L23.8 23.5938ZM8.98791 30.3504C9.02309 30.7423 9.12118 31.0665 9.32106 31.2813H9.32955C9.35478 31.3146 9.38106 31.3458 9.40828 31.3751V31.2813H9.32955C9.15491 31.0515 9.03018 30.7295 8.98791 30.3504ZM8.98791 30.3504C8.97703 30.2292 8.97217 30.1016 8.97217 29.9688V30.0625C8.97217 30.1616 8.97757 30.2577 8.98791 30.3504Z" fill="#fff"/>
  <path opacity=".25" d="M11.1527 8.12485L28.1611 18.5311C28.6844 18.9061 29.0333 19.2811 29.0333 19.7499C29.0333 19.2811 28.7716 18.8124 28.1611 18.4373L11.1527 8.12485C9.93161 7.2811 8.97217 7.8436 8.97217 9.34359V9.43735C8.97217 8.03109 9.93161 7.37485 11.1527 8.12485Z" fill="#fff"/>
  <defs>
    <linearGradient id="3zkbtppiv__paint0_linear_847_34540" x1="15.7286" y1="-7.05857" x2="-2.28951" y2="-3.13555" gradientUnits="userSpaceOnUse">
      <stop stop-color="#00A0FF"/>
      <stop offset=".007" stop-color="#00A1FF"/>
      <stop offset=".26" stop-color="#00BEFF"/>
      <stop offset=".512" stop-color="#00D2FF"/>
      <stop offset=".76" stop-color="#00DFFF"/>
      <stop offset="1" stop-color="#00E3FF"/>
    </linearGradient>
    <linearGradient id="3zkbtppiv__paint1_linear_847_34540" x1="29.7608" y1="10.2984" x2="8.65557" y2="10.2984" gradientUnits="userSpaceOnUse">
      <stop stop-color="#FFE000"/>
      <stop offset=".409" stop-color="#FFBD00"/>
      <stop offset=".775" stop-color="orange"/>
      <stop offset="1" stop-color="#FF9C00"/>
    </linearGradient>
    <linearGradient id="3zkbtppiv__paint2_linear_847_34540" x1="9.96173" y1="13.0657" x2="-7.02875" y2="36.0368" gradientUnits="userSpaceOnUse">
      <stop stop-color="#FF3A44"/>
      <stop offset="1" stop-color="#C31162"/>
    </linearGradient>
    <linearGradient id="3zkbtppiv__paint3_linear_847_34540" x1="1.22908" y1="5.12172" x2="8.76474" y2="15.4048" gradientUnits="userSpaceOnUse">
      <stop stop-color="#32A071"/>
      <stop offset=".069" stop-color="#2DA771"/>
      <stop offset=".476" stop-color="#15CF74"/>
      <stop offset=".801" stop-color="#06E775"/>
      <stop offset="1" stop-color="#00F076"/>
    </linearGradient>
  </defs>
</svg>
