<svg xmlns="http://www.w3.org/2000/svg" fill="none" viewBox="0 0 48 48" class="design-iconfont">
  <path d="M13.535 40.7908C15.8016 40.7975 24.2443 40.7908 28.727 40.7908C29.9229 40.7907 31.107 40.5545 32.2116 40.0959C33.3161 39.6373 34.3193 38.9653 35.1636 38.1183C36.008 37.2714 36.6769 36.2662 37.1321 35.1602C37.5873 34.0543 37.8198 32.8694 37.8163 31.6735C37.8163 26.6548 33.8443 22.5535 28.8216 22.5535C33.1136 22.5535 36.4296 19.1042 36.4296 14.8882C36.4282 12.861 35.6246 10.9168 34.1944 9.48031C32.7641 8.04379 30.8234 7.23172 28.7963 7.2215C25.3296 7.19883 22.591 7.2215 17.9523 7.2215C17.6561 7.22146 17.3687 7.32215 17.1373 7.50702C16.9059 7.69189 16.7443 7.94996 16.679 8.23883L16.027 11.1295C16.0214 11.1547 16.0211 11.1808 16.0261 11.2062C16.0311 11.2315 16.0414 11.2555 16.0562 11.2767C16.0709 11.2979 16.09 11.3158 16.112 11.3292C16.1341 11.3427 16.1587 11.3514 16.1843 11.3548L23.823 12.3695L25.8363 12.6362C27.8083 12.9028 29.1696 14.3028 29.131 16.2082C29.1184 16.9802 28.8484 17.7259 28.3639 18.3271C27.8794 18.9283 27.208 19.3505 26.4563 19.5268C25.7833 19.6902 25.0769 19.6501 24.4268 19.4116C23.7766 19.1732 23.2118 18.747 22.8041 18.1872C22.3964 17.6274 22.1641 16.9591 22.1366 16.2671C22.1091 15.5752 22.2876 14.8906 22.6496 14.3002V14.3002L15.6896 13.3735C15.6434 13.367 15.5964 13.3783 15.5581 13.405C15.5197 13.4317 15.4929 13.4719 15.483 13.5175L12.8683 25.1335C12.8627 25.1587 12.8624 25.1848 12.8674 25.2102C12.8725 25.2355 12.8827 25.2595 12.8975 25.2807C12.9123 25.3019 12.9313 25.3198 12.9534 25.3332C12.9754 25.3467 13 25.3554 13.0256 25.3588L23.7003 26.7722L24.8523 26.9242C27.1443 27.2375 28.9603 28.9242 28.8923 31.2668C28.8716 31.9322 28.6937 32.5832 28.3731 33.1665C28.0525 33.7499 27.5983 34.249 27.0477 34.6231C26.4971 34.9972 25.8657 35.2356 25.2053 35.3188C24.5448 35.402 23.8741 35.3277 23.2479 35.1018C22.6217 34.876 22.0579 34.5051 21.6026 34.0194C21.1474 33.5338 20.8135 32.9473 20.6285 32.3079C20.4434 31.6685 20.4124 30.9943 20.538 30.3406C20.6636 29.6869 20.9422 29.0722 21.351 28.5468L12.5336 27.3882C12.4874 27.382 12.4406 27.3934 12.4023 27.4201C12.3641 27.4467 12.3372 27.4867 12.327 27.5322L10.267 36.6682C10.1561 37.1603 10.1568 37.6711 10.269 38.1629C10.3813 38.6548 10.6022 39.1153 10.9156 39.5106C11.229 39.906 11.6269 40.2261 12.0801 40.4477C12.5334 40.6692 13.0305 40.7865 13.535 40.7908V40.7908Z" fill="#0FF"/>
</svg>
