<?xml version="1.0" encoding="utf-8"?>
<!-- Generator: Adobe Illustrator 24.0.2, SVG Export Plug-In . SVG Version: 6.00 Build 0)  -->
<svg version="1.1" id="Layer_1" xmlns="http://www.w3.org/2000/svg" xmlns:xlink="http://www.w3.org/1999/xlink" x="0px" y="0px"
	 viewBox="0 0 46 47" style="enable-background:new 0 0 46 47;" xml:space="preserve">
<style type="text/css">
	.st0{fill:#FFFFFF;fill-opacity:0.1;}
	.st1{clip-path:url(#SVGID_2_);}
	.st2{fill:#8F8F8F;}
</style>
<path class="st0" d="M23,0.5c-12.7,0-23,10.3-23,23s10.3,23,23,23s23-10.3,23-23S35.7,0.5,23,0.5z"/>
<g>
	<defs>
		<rect id="SVGID_1_" x="10" y="10.5" width="26" height="26"/>
	</defs>
	<clipPath id="SVGID_2_">
		<use xlink:href="#SVGID_1_"  style="overflow:visible;"/>
	</clipPath>
	<g class="st1">
		<path class="st2" d="M34,16.6c-0.8,0.4-1.7,0.6-2.6,0.7c0.9-0.6,1.7-1.5,2-2.5c-0.9,0.5-1.9,0.9-2.9,1.1c-0.7-0.7-1.6-1.2-2.6-1.4
			c-1-0.2-2,0-2.9,0.5s-1.6,1.2-2,2.1c-0.4,0.9-0.5,1.9-0.3,2.9c-1.8-0.1-3.6-0.6-5.2-1.4c-1.6-0.8-3-2-4.2-3.4
			c-0.4,0.7-0.6,1.5-0.6,2.3c0,1.6,0.8,3,2,3.8c-0.7,0-1.4-0.2-2.1-0.6v0.1c0,1,0.4,2.1,1,2.9c0.7,0.8,1.6,1.4,2.6,1.6
			c-0.7,0.2-1.4,0.2-2,0.1c0.3,0.9,0.9,1.7,1.6,2.3c0.8,0.6,1.7,0.9,2.6,0.9c-0.9,0.7-2,1.3-3.2,1.6c-1.2,0.3-2.4,0.4-3.5,0.3
			c2.1,1.3,4.5,2,6.9,2c8.3,0,12.9-6.9,12.9-12.9c0-0.2,0-0.4,0-0.6C32.6,18.3,33.4,17.5,34,16.6L34,16.6z"/>
	</g>
</g>
</svg>
