<?xml version="1.0" encoding="utf-8"?>
<!-- Generator: Adobe Illustrator 24.0.2, SVG Export Plug-In . SVG Version: 6.00 Build 0)  -->
<svg version="1.1" id="Layer_1" xmlns="http://www.w3.org/2000/svg" xmlns:xlink="http://www.w3.org/1999/xlink" x="0px" y="0px"
	 viewBox="0 0 46 46" style="enable-background:new 0 0 46 46;" xml:space="preserve">
<style type="text/css">
	.st0{fill:#FFFFFF;fill-opacity:0.1;}
	.st1{fill-rule:evenodd;clip-rule:evenodd;fill:#8F8F8F;}
</style>
<path class="st0" d="M23,0C10.3,0,0,10.3,0,23s10.3,23,23,23s23-10.3,23-23S35.7,0,23,0z"/>
<path class="st1" d="M33.3,14.5c1.1,0.3,1.9,1.1,2.2,2.2c0.5,2,0.5,6,0.5,6s0,4.1-0.5,6c-0.3,1.1-1.1,1.9-2.2,2.2
	c-2,0.5-9.8,0.5-9.8,0.5s-7.8,0-9.8-0.5c-1.1-0.3-1.9-1.1-2.2-2.2c-0.5-1.9-0.5-6-0.5-6s0-4.1,0.5-6c0.3-1.1,1.2-1.9,2.2-2.2
	c2-0.5,9.8-0.5,9.8-0.5S31.3,14,33.3,14.5z M21,19l6.5,3.7L21,26.5V19z"/>
</svg>
