<?xml version="1.0" encoding="utf-8"?>
<!-- Generator: Adobe Illustrator 24.0.2, SVG Export Plug-In . SVG Version: 6.00 Build 0)  -->
<svg version="1.1" id="Layer_1" xmlns="http://www.w3.org/2000/svg" xmlns:xlink="http://www.w3.org/1999/xlink" x="0px" y="0px"
	 viewBox="0 0 46 47" style="enable-background:new 0 0 46 47;" xml:space="preserve">
<style type="text/css">
	.st0{fill:#FFFFFF;fill-opacity:0.1;}
	.st1{clip-path:url(#SVGID_2_);}
	.st2{fill:#8F8F8F;}
</style>
<path class="st0" d="M23,0.5c-12.7,0-23,10.3-23,23s10.3,23,23,23s23-10.3,23-23S35.7,0.5,23,0.5z"/>
<g>
	<defs>
		<rect id="SVGID_1_" x="10" y="10.5" width="26" height="26"/>
	</defs>
	<clipPath id="SVGID_2_">
		<use xlink:href="#SVGID_1_"  style="overflow:visible;"/>
	</clipPath>
	<g class="st1">
		<path class="st2" d="M23,12.7c2.9,0,3.3,0,4.5,0.1c1.2,0.1,1.9,0.2,2.6,0.5c0.7,0.3,1.3,0.6,1.9,1.2c0.6,0.5,1,1.2,1.2,1.9
			c0.3,0.7,0.4,1.5,0.5,2.6c0.1,1.2,0.1,1.5,0.1,4.5c0,2.9,0,3.3-0.1,4.5c-0.1,1.2-0.2,1.9-0.5,2.6C33,31.3,32.6,32,32,32.5
			c-0.5,0.6-1.2,1-1.9,1.2c-0.7,0.3-1.5,0.4-2.6,0.5c-1.2,0.1-1.5,0.1-4.5,0.1s-3.3,0-4.5-0.1c-1.2-0.1-1.9-0.2-2.6-0.5
			c-0.7-0.3-1.4-0.7-1.9-1.2c-0.6-0.5-1-1.2-1.2-1.9c-0.3-0.7-0.4-1.5-0.5-2.6c-0.1-1.2-0.1-1.5-0.1-4.5c0-2.9,0-3.3,0.1-4.5
			c0.1-1.2,0.2-1.9,0.5-2.6c0.3-0.7,0.7-1.4,1.2-1.9c0.5-0.6,1.2-1,1.9-1.2c0.7-0.3,1.5-0.4,2.6-0.5C19.7,12.7,20.1,12.7,23,12.7z
			 M23,18.1c-1.4,0-2.8,0.6-3.8,1.6c-1,1-1.6,2.4-1.6,3.8c0,1.4,0.6,2.8,1.6,3.8c1,1,2.4,1.6,3.8,1.6c1.4,0,2.8-0.6,3.8-1.6
			c1-1,1.6-2.4,1.6-3.8c0-1.4-0.6-2.8-1.6-3.8C25.8,18.7,24.4,18.1,23,18.1z M30,17.8c0-0.4-0.1-0.7-0.4-1c-0.3-0.3-0.6-0.4-1-0.4
			c-0.4,0-0.7,0.1-1,0.4c-0.3,0.3-0.4,0.6-0.4,1c0,0.4,0.1,0.7,0.4,1c0.3,0.3,0.6,0.4,1,0.4c0.4,0,0.7-0.1,1-0.4
			C29.9,18.5,30,18.2,30,17.8z M23,20.2c0.9,0,1.7,0.3,2.3,1c0.6,0.6,1,1.4,1,2.3c0,0.9-0.3,1.7-1,2.3c-0.6,0.6-1.4,1-2.3,1
			c-0.9,0-1.7-0.3-2.3-1c-0.6-0.6-1-1.4-1-2.3c0-0.9,0.3-1.7,1-2.3C21.3,20.6,22.1,20.2,23,20.2z"/>
	</g>
</g>
</svg>
