<?xml version="1.0" encoding="utf-8"?>
<!-- Generator: Adobe Illustrator 24.0.2, SVG Export Plug-In . SVG Version: 6.00 Build 0)  -->
<svg version="1.1" id="Layer_1" xmlns="http://www.w3.org/2000/svg" xmlns:xlink="http://www.w3.org/1999/xlink" x="0px" y="0px"
	 viewBox="0 0 46 46" style="enable-background:new 0 0 46 46;" xml:space="preserve">
<style type="text/css">
	.st0{fill:#FFFFFF;fill-opacity:0.1;}
	.st1{clip-path:url(#SVGID_2_);}
	.st2{fill:#8F8F8F;}
</style>
<path class="st0" d="M23,0C10.3,0,0,10.3,0,23s10.3,23,23,23s23-10.3,23-23S35.7,0,23,0z"/>
<g>
	<defs>
		<rect id="SVGID_1_" x="8" y="8" width="30" height="30"/>
	</defs>
	<clipPath id="SVGID_2_">
		<use xlink:href="#SVGID_1_"  style="overflow:visible;"/>
	</clipPath>
	<g class="st1">
		<path class="st2" d="M23,9.5c-7.5,0-13.5,6.1-13.5,13.6c0,6.8,4.9,12.4,11.4,13.4V27h-3.4v-3.9h3.4v-3c0-3.4,2-5.3,5.1-5.3
			c1.5,0,3,0.3,3,0.3v3.3h-1.7c-1.7,0-2.2,1-2.2,2.1v2.5h3.7L28.3,27h-3.1v9.5c6.5-1,11.4-6.6,11.4-13.4C36.5,15.6,30.5,9.5,23,9.5z
			"/>
	</g>
</g>
</svg>
